<?xml version="1.0" encoding="iso-8859-1"?>
<!-- Generator: Adobe Illustrator 19.0.0, SVG Export Plug-In . SVG Version: 6.00 Build 0)  -->
<svg version="1.1" id="Layer_1" xmlns="http://www.w3.org/2000/svg" xmlns:xlink="http://www.w3.org/1999/xlink" x="0px" y="0px"
	 viewBox="0 0 512 512" style="enable-background:new 0 0 512 512;" xml:space="preserve">
<g>
	<g>
		<circle cx="58.182" cy="197.818" r="11.636"/>
	</g>
</g>
<g>
	<g>
		<circle cx="453.818" cy="197.818" r="11.636"/>
	</g>
</g>
<g>
	<g>
		<path d="M151.273,290.909c-6.982,0-11.636,4.655-11.636,11.636v93.091c0,6.982,4.655,11.636,11.636,11.636
			c6.982,0,11.636-4.655,11.636-11.636v-93.091C162.909,295.564,158.255,290.909,151.273,290.909z"/>
	</g>
</g>
<g>
	<g>
		<path d="M221.091,290.909c-6.982,0-11.636,4.655-11.636,11.636v93.091c0,6.982,4.655,11.636,11.636,11.636
			c6.982,0,11.636-4.655,11.636-11.636v-93.091C232.727,295.564,228.073,290.909,221.091,290.909z"/>
	</g>
</g>
<g>
	<g>
		<path d="M290.909,290.909c-6.982,0-11.636,4.655-11.636,11.636v93.091c0,6.982,4.655,11.636,11.636,11.636
			s11.636-4.655,11.636-11.636v-93.091C302.545,295.564,297.891,290.909,290.909,290.909z"/>
	</g>
</g>
<g>
	<g>
		<path d="M477.091,256C496.873,256,512,240.873,512,221.091v-46.545c0-19.782-15.127-34.909-34.909-34.909h-38.4l-27.927-91.927
			c-3.491-13.964-17.455-24.436-32.582-24.436h-29.091V11.636C349.091,4.655,344.436,0,337.455,0H174.545
			c-6.982,0-11.636,4.655-11.636,11.636v11.636h-18.618c-15.127,0-27.927,8.146-32.582,22.109l-38.4,94.255h-38.4
			C15.127,139.636,0,154.764,0,174.545v46.545C0,240.873,15.127,256,34.909,256h1.164l19.782,178.036
			c2.327,18.618,17.455,31.418,34.909,31.418h188.509c6.982,0,11.636-4.655,11.636-11.636s-4.655-11.636-11.636-11.636H90.764
			c-5.818,0-10.473-4.655-11.636-10.473L58.182,243.2c-1.164-5.818-5.818-10.473-11.636-10.473H34.909
			c-6.982,0-11.636-4.655-11.636-11.636v-46.545c0-6.982,4.655-11.636,11.636-11.636h46.545H384c6.982,0,11.636-4.655,11.636-11.636
			c0-6.982-4.655-11.636-11.636-11.636H98.909l33.745-86.109c2.327-4.655,5.818-6.982,11.636-6.982h18.618v11.636
			c0,6.982,4.655,11.636,11.636,11.636h162.909c6.982,0,11.636-4.655,11.636-11.636V46.545h29.091c4.655,0,9.309,3.491,11.636,8.145
			l30.255,100.073c1.164,4.655,5.818,8.145,11.636,8.145h46.545c6.982,0,11.636,4.655,11.636,11.636v46.545
			c0,6.982-4.655,11.636-11.636,11.636h-11.636H93.091c-6.982,0-11.636,4.655-11.636,11.636S86.109,256,93.091,256h359.564
			l-5.818,54.691c-11.636-4.655-25.6-8.145-39.564-8.145c-12.8,0-24.436,2.327-34.909,5.818v-5.818
			c0-6.982-4.655-11.636-11.636-11.636s-11.636,4.655-11.636,11.636V320c-27.927,18.618-46.545,51.2-46.545,87.273
			c0,58.182,46.545,104.727,104.727,104.727S512,465.455,512,407.273c0-34.909-17.455-66.327-43.055-84.945L475.927,256H477.091z
			 M325.818,46.545H186.182V23.273h139.636V46.545z M488.727,407.273c0,45.382-36.073,81.455-81.455,81.455
			s-81.455-36.073-81.455-81.455s36.073-81.455,81.455-81.455S488.727,361.891,488.727,407.273z"/>
	</g>
</g>
<g>
	<g>
		<path d="M453.818,411.927c-5.818-4.654-12.8-5.818-18.618-2.327l-16.291,11.636v-48.873c0-6.982-4.655-11.636-11.636-11.636
			c-6.982,0-11.636,4.655-11.636,11.636v47.709l-16.291-11.636c-5.818-3.491-12.8-2.327-16.291,3.491s-2.327,12.8,3.491,16.291
			l34.909,23.273c2.327,1.164,4.655,2.327,6.982,2.327c2.327,0,4.655-1.164,6.982-2.327l34.909-23.273
			C456.145,424.727,457.309,417.745,453.818,411.927z"/>
	</g>
</g>
<g>
</g>
<g>
</g>
<g>
</g>
<g>
</g>
<g>
</g>
<g>
</g>
<g>
</g>
<g>
</g>
<g>
</g>
<g>
</g>
<g>
</g>
<g>
</g>
<g>
</g>
<g>
</g>
<g>
</g>
</svg>
